PathFileType	4	(X/Y/Z)	 s08c0202.trc
DataRate	CameraRate	NumFrames	NumMarkers	Units	OrigDataRate	OrigDataStartFrame	OrigNumFrames
200	200	5	50	mm	200	1251	2000
Frame#	Time	racr			lacr			c7			jug			rlel			rdr			llel			ldr			s2			lic			ric			lasi			rasi			rpsi			lpsi			rgt			lgt			rth1			rth2			rth3			rth4			rlfc			rmfc			rsh1			rsh2			rsh3			rsh4			rlmal			rmmal			rcal			rtoe			rmt5			lth1			lth2			lth4			lth3			llfc			lmfc			llmal			lmmal			lcal			lmt5			lsh1			lsh2			lsh3			lsh4			ltoe			SBIKE			LBIKE			RBIKE			
		X1	Y1	Z1	X2	Y2	Z2	X3	Y3	Z3	X4	Y4	Z4	X5	Y5	Z5	X6	Y6	Z6	X7	Y7	Z7	X8	Y8	Z8	X9	Y9	Z9	X10	Y10	Z10	X11	Y11	Z11	X12	Y12	Z12	X13	Y13	Z13	X14	Y14	Z14	X15	Y15	Z15	X16	Y16	Z16	X17	Y17	Z17	X18	Y18	Z18	X19	Y19	Z19	X20	Y20	Z20	X21	Y21	Z21	X22	Y22	Z22	X23	Y23	Z23	X24	Y24	Z24	X25	Y25	Z25	X26	Y26	Z26	X27	Y27	Z27	X28	Y28	Z28	X29	Y29	Z29	X30	Y30	Z30	X31	Y31	Z31	X32	Y32	Z32	X33	Y33	Z33	X34	Y34	Z34	X35	Y35	Z35	X36	Y36	Z36	X37	Y37	Z37	X38	Y38	Z38	X39	Y39	Z39	X40	Y40	Z40	X41	Y41	Z41	X42	Y42	Z42	X43	Y43	Z43	X44	Y44	Z44	X45	Y45	Z45	X46	Y46	Z46	X47	Y47	Z47	X48	Y48	Z48	X49	Y49	Z49	X50	Y50	Z50	
1251	6.2550	522.155518	1325.473118	-25.472975	553.885226	1333.138741	-380.623256	526.595475	1422.674336	-198.713171	477.080740	1266.154739	-205.425328	528.163263	1074.092783	72.986532	766.536552	932.555194	-40.504745	554.805303	1098.939750	-532.077508	756.458779	935.471451	-431.057147	-17.692657	1209.152798	-260.997938	146.640366	1198.491340	-403.583333	113.676172	1225.549486	-89.380973	166.966378	1145.523516	-371.940311	141.928916	1184.711484	-109.322250	5.887777	1255.058985	-214.839336	12.720708	1249.642792	-307.922589	76.243571	1140.253384	-48.245854	73.383872	1070.662625	-427.803913	226.050173	1064.157799	-50.614207	313.542334	1049.037067	-54.029421	379.845443	993.792607	-54.673464	327.753423	1079.908287	-69.767188	476.821880	926.640325	-72.065824	461.501045	909.368339	-182.697244	392.087048	838.625402	-40.114965	357.023878	756.658393	-56.248589	288.688847	704.609035	-56.331490	382.994689	740.748806	-82.950630	207.836145	608.851822	-60.517947	231.473183	619.288431	-147.017354	122.152721	609.786358	-104.197338	392.894516	482.418088	-100.168379	298.093547	490.979010	-33.371143	121.218876	942.460201	-446.090639	172.705218	871.427237	-448.640612	206.747331	884.306211	-441.207402	181.101975	782.936958	-444.016019	218.893025	661.686870	-413.443521	225.132945	638.642762	-308.752448	172.198590	246.100386	-402.406882	205.600632	266.631405	-321.635131	113.378902	233.634308	-360.335733	307.433433	138.962329	-415.237743	191.531528	534.474593	-435.018292	207.929362	451.413987	-419.285891	181.082267	367.499651	-414.761183	234.917391	453.419933	-389.725948	392.507764	157.967023	-346.367572	-141.944508	938.935953	-224.169642	18.208875	83.477948	-426.216128	11.191622	80.625409	-27.792563	
1252	6.2600	521.491041	1324.377605	-22.945988	554.332633	1332.647194	-377.529171	526.479666	1421.479119	-195.991041	476.777558	1265.008076	-202.815018	527.739605	1072.656649	74.778218	766.632072	933.006987	-39.475134	555.839972	1099.670421	-531.050938	757.325803	935.834955	-431.082363	-18.305010	1210.058044	-261.800954	146.764962	1198.474016	-403.483072	112.987030	1226.260749	-89.824764	166.535512	1145.361505	-372.346051	138.360366	1186.170458	-106.987447	5.050284	1255.434372	-214.657030	12.645340	1250.531366	-308.676790	74.864821	1141.037752	-48.938184	72.605822	1071.001812	-428.137566	224.558671	1065.684877	-50.042459	312.042347	1050.714478	-53.062293	378.452451	995.608091	-53.295281	326.301147	1081.578960	-68.572121	475.982064	928.707731	-69.996359	461.322786	911.515298	-181.011502	392.219072	839.246982	-38.738461	358.536494	756.692755	-55.149432	291.084918	703.513448	-55.675708	385.018329	741.332360	-81.436100	212.370968	605.855323	-60.338888	235.863894	617.007606	-146.617626	126.786107	602.992931	-104.468111	402.495303	487.781225	-99.974548	307.542076	491.901071	-33.142356	119.258002	942.252743	-447.157519	170.722005	871.245106	-450.403775	204.844036	884.347793	-443.920955	179.158311	782.821140	-445.295620	218.480300	662.232385	-413.456936	225.356492	639.184526	-308.399024	162.772831	247.726903	-401.493843	197.121113	267.573787	-320.872831	103.933686	235.852767	-358.952564	296.438464	138.870580	-415.400890	188.886837	535.538058	-434.472409	203.237743	452.081138	-418.654162	174.447000	368.877130	-413.860121	230.566222	453.546510	-389.269693	382.228492	156.701029	-347.171501	-141.744632	938.797200	-224.086637	18.194012	83.445651	-426.261835	11.217276	80.881231	-27.650386	
1253	6.2650	520.821601	1323.266194	-20.491468	554.839879	1331.981039	-374.629990	526.378552	1420.260654	-193.335174	476.485927	1263.839061	-200.274266	527.070378	1071.481614	76.842364	766.687699	933.401871	-38.434019	557.255288	1100.116044	-529.410671	758.252969	936.045013	-430.625050	-18.781775	1210.738179	-262.391646	146.691851	1198.660388	-403.414153	112.099180	1227.306999	-90.179225	166.131772	1145.362799	-372.551944	134.646820	1187.595668	-104.374141	4.366286	1256.474051	-215.272471	12.319293	1251.451136	-309.395412	73.382434	1141.818571	-49.636583	71.711537	1071.401474	-428.410834	223.009539	1066.443206	-49.360709	310.504396	1051.496713	-51.941143	376.792499	996.264864	-52.034290	324.774041	1082.441631	-67.293100	474.643723	928.844185	-68.125157	460.677368	912.535433	-179.444834	391.389212	838.569132	-37.521953	359.342445	755.387492	-54.006669	293.009290	700.841006	-55.050897	386.393612	740.525565	-80.210743	216.713062	601.668599	-60.430006	239.811894	613.547133	-146.568139	131.063649	595.016025	-104.280422	411.724745	492.654126	-99.545040	316.605194	492.179982	-32.767696	117.921644	942.323381	-447.824168	169.524283	871.595834	-451.935568	203.894238	884.857154	-445.976101	178.701856	783.126019	-445.376178	219.349175	663.607555	-413.163362	227.046012	640.161077	-307.978752	153.810936	250.244676	-400.421875	201.952039	279.787644	-333.083123	94.869464	239.093546	-357.382092	285.669752	139.670603	-415.475094	187.351727	537.198243	-433.838256	199.345078	453.315973	-417.518482	168.515171	371.114804	-412.806805	227.503484	455.110221	-390.508495	372.266111	156.031038	-347.569071	-141.826911	938.794970	-224.047777	18.172739	83.480726	-426.207635	11.178808	80.818628	-27.623632	
1254	6.2700	520.110687	1322.086210	-18.208058	569.019403	1336.110516	-387.906281	526.263483	1418.979155	-190.837655	486.347631	1259.768002	-199.140572	526.638195	1070.209720	78.673274	766.682747	933.785853	-37.483021	558.429887	1100.430381	-528.283231	759.143922	936.165503	-430.082681	-19.343230	1211.481702	-263.089277	146.445062	1199.114297	-403.328323	111.290098	1228.226297	-90.385741	165.535545	1145.557078	-372.568107	130.824591	1188.978748	-101.513618	3.945450	1257.179613	-216.043629	12.191294	1252.340052	-309.399677	71.957760	1142.516790	-50.422708	70.757459	1071.900622	-428.671384	221.299319	1066.618014	-48.575708	308.751365	1051.391788	-51.052848	374.821782	995.854418	-50.765220	323.238407	1082.284610	-65.902029	473.001902	928.244807	-66.370224	459.530588	912.266552	-177.824192	389.615945	836.611886	-36.631321	359.725099	752.481021	-52.924109	294.608989	696.630119	-54.500381	387.253228	738.131869	-78.926951	220.542768	595.906669	-60.519552	243.432196	608.779000	-146.538545	135.264706	585.404896	-104.123462	420.682871	497.181004	-98.924065	325.661044	491.773757	-32.363722	117.320977	942.671159	-447.966640	169.347236	872.286298	-452.557930	203.810038	885.895058	-447.737664	179.520991	784.055735	-445.045381	221.912829	665.335262	-412.904893	230.022843	641.964979	-307.577134	145.568175	253.830960	-399.277384	194.227745	282.269182	-331.949810	86.251363	243.622231	-356.037839	274.988249	140.927358	-415.356324	187.002201	539.487143	-432.847337	196.557685	455.385294	-416.562996	163.461199	374.131864	-411.627688	224.924930	456.451106	-389.689626	362.096005	155.718420	-348.192107	-141.971958	938.781546	-223.957730	18.151189	83.489474	-426.188940	11.133550	80.602032	-27.777495	
1255	6.2750	519.371562	1321.067234	-16.057311	569.177954	1334.825306	-385.344653	526.086778	1417.727558	-188.554892	485.680016	1258.620279	-196.802083	526.262009	1069.057784	80.468170	766.537487	934.046387	-36.545190	559.585563	1100.537424	-527.299061	760.043998	936.212225	-429.483948	-20.020672	1212.247930	-263.152496	146.007625	1199.637987	-403.038841	110.328947	1229.409843	-90.532418	164.732123	1146.085021	-372.364274	126.929990	1190.311332	-98.437163	3.439508	1257.606199	-216.687523	11.492380	1253.251753	-309.944717	70.563057	1143.261778	-51.141988	69.814934	1072.534976	-428.870464	219.354800	1066.006539	-47.780247	306.852131	1050.331116	-49.824380	372.597487	994.268792	-49.348784	321.708208	1081.252462	-64.261052	470.686578	926.299878	-64.455362	457.899372	910.739016	-176.188781	388.210691	833.078302	-35.434773	359.927141	748.421941	-51.777409	295.905179	691.192759	-53.904490	387.760159	734.651056	-77.722341	224.171965	588.854200	-60.436292	246.839677	602.917936	-146.546807	139.619352	574.542245	-103.789805	429.026887	501.423869	-98.520521	334.444967	490.496730	-32.025454	117.453394	943.353518	-447.775542	170.208450	873.606230	-452.613131	204.524087	887.675352	-449.106768	181.691469	785.555611	-444.527271	225.607060	667.595160	-412.600651	234.322996	644.024145	-307.141725	137.765323	258.398150	-398.083848	187.498666	285.696593	-330.961082	78.488136	249.176001	-354.203142	264.509048	142.897353	-415.339213	187.775155	542.481738	-432.124171	194.673849	458.070521	-415.197662	159.339048	377.975982	-410.448655	223.007720	458.015033	-388.009432	352.347899	155.218086	-348.176290	-142.088765	938.804577	-223.814492	18.135122	83.505594	-426.166145	11.132758	80.809846	-27.558889	
